HIERARCHY
ROOT hip
{
  OFFSET 17.9028 73.4307 16.8062
  CHANNELS 6 Xposition Yposition Zposition Zrotation Xrotation Yrotation
  JOINT abdomen
  {
    OFFSET 0 20.6881 -0.73152
    CHANNELS 3 Zrotation Xrotation Yrotation
    JOINT chest
    {
      OFFSET 0 11.7043 -0.48768
      CHANNELS 3 Zrotation Xrotation Yrotation
      JOINT neck
      {
        OFFSET 0 22.1894 -2.19456
        CHANNELS 3 Zrotation Xrotation Yrotation
        JOINT head
        {
          OFFSET -0.24384 7.07133 1.2192
          CHANNELS 3 Zrotation Xrotation Yrotation
          JOINT leftEye
          {
            OFFSET 4.14528 8.04674 8.04672
            CHANNELS 3 Zrotation Xrotation Yrotation
            End Site
            {
              OFFSET 1 0 0
            }
          }
          JOINT rightEye
          {
            OFFSET -3.6576 8.04674 8.04672
            CHANNELS 3 Zrotation Xrotation Yrotation
            End Site
            {
              OFFSET 1 0 0
            }
          }
        }
      }
      JOINT rCollar
      {
        OFFSET -2.68224 19.2634 -4.8768
        CHANNELS 3 Zrotation Xrotation Yrotation
        JOINT rShldr
        {
          OFFSET -8.77824 -1.95073 1.46304
          CHANNELS 3 Zrotation Xrotation Yrotation
          JOINT rForeArm
          {
            OFFSET -28.1742 -1.7115 0.48768
            CHANNELS 3 Zrotation Xrotation Yrotation
            JOINT rHand
            {
              OFFSET -22.5879 0.773209 7.07136
              CHANNELS 3 Zrotation Xrotation Yrotation
              JOINT rThumb1
              {
                OFFSET -1.2192 -0.487915 3.41376
                CHANNELS 3 Zrotation Xrotation Yrotation
                JOINT rThumb2
                {
                  OFFSET -3.37035 -0.52449 3.41376
                  CHANNELS 3 Zrotation Xrotation Yrotation
                  End Site
                  {
                    OFFSET -1.78271 -1.18214 1.43049
                  }
                }
              }
              JOINT rIndex1
              {
                OFFSET -7.75947 0.938293 5.60832
                CHANNELS 3 Zrotation Xrotation Yrotation
                JOINT rIndex2
                {
                  OFFSET -2.54057 -0.884171 1.56538
                  CHANNELS 3 Zrotation Xrotation Yrotation
                  End Site
                  {
                    OFFSET -1.62519 -0.234802 1.16502
                  }
                }
              }
              JOINT rMid1
              {
                OFFSET -8.24714 1.18213 3.41376
                CHANNELS 3 Zrotation Xrotation Yrotation
                JOINT rMid2
                {
                  OFFSET -3.10165 -0.590103 1.0647
                  CHANNELS 3 Zrotation Xrotation Yrotation
                  End Site
                  {
                    OFFSET -2.48547 -0.328903 0.83742
                  }
                }
              }
              JOINT rRing1
              {
                OFFSET -8.82822 0.546677 1.51678
                CHANNELS 3 Zrotation Xrotation Yrotation
                JOINT rRing2
                {
                  OFFSET -2.60934 -0.819778 -0.0198488
                  CHANNELS 3 Zrotation Xrotation Yrotation
                  End Site
                  {
                    OFFSET -2.33842 -0.294052 0.168128
                  }
                }
              }
              JOINT rPinky1
              {
                OFFSET -8.27202 -0.0477905 -0.4584
                CHANNELS 3 Zrotation Xrotation Yrotation
                JOINT rPinky2
                {
                  OFFSET -1.82734 -0.647385 -0.700984
                  CHANNELS 3 Zrotation Xrotation Yrotation
                  End Site
                  {
                    OFFSET -1.69225 -0.51767 -0.607171
                  }
                }
              }
            }
          }
        }
      }
      JOINT lCollar
      {
        OFFSET 2.68224 19.2634 -4.8768
        CHANNELS 3 Zrotation Xrotation Yrotation
        JOINT lShldr
        {
          OFFSET 8.77824 -1.95073 1.46304
          CHANNELS 3 Zrotation Xrotation Yrotation
          JOINT lForeArm
          {
            OFFSET 28.1742 -1.7115 0.48768
            CHANNELS 3 Zrotation Xrotation Yrotation
            JOINT lHand
            {
              OFFSET 22.5879 0.773209 7.07136
              CHANNELS 3 Zrotation Xrotation Yrotation
              JOINT lThumb1
              {
                OFFSET 1.2192 -0.487915 3.41376
                CHANNELS 3 Zrotation Xrotation Yrotation
                JOINT lThumb2
                {
                  OFFSET 3.37035 -0.52449 3.41376
                  CHANNELS 3 Zrotation Xrotation Yrotation
                  End Site
                  {
                    OFFSET 1.78271 -1.18214 1.43049
                  }
                }
              }
              JOINT lIndex1
              {
                OFFSET 7.75947 0.938293 5.60832
                CHANNELS 3 Zrotation Xrotation Yrotation
                JOINT lIndex2
                {
                  OFFSET 2.54057 -0.884171 1.56538
                  CHANNELS 3 Zrotation Xrotation Yrotation
                  End Site
                  {
                    OFFSET 1.62519 -0.234802 1.16502
                  }
                }
              }
              JOINT lMid1
              {
                OFFSET 8.24714 1.18213 3.41376
                CHANNELS 3 Zrotation Xrotation Yrotation
                JOINT lMid2
                {
                  OFFSET 3.10165 -0.590103 1.0647
                  CHANNELS 3 Zrotation Xrotation Yrotation
                  End Site
                  {
                    OFFSET 2.48547 -0.328903 0.83742
                  }
                }
              }
              JOINT lRing1
              {
                OFFSET 8.82822 0.546677 1.51678
                CHANNELS 3 Zrotation Xrotation Yrotation
                JOINT lRing2
                {
                  OFFSET 2.60934 -0.819778 -0.0198488
                  CHANNELS 3 Zrotation Xrotation Yrotation
                  End Site
                  {
                    OFFSET 2.33842 -0.294052 0.168128
                  }
                }
              }
              JOINT lPinky1
              {
                OFFSET 8.27202 -0.0477905 -0.4584
                CHANNELS 3 Zrotation Xrotation Yrotation
                JOINT lPinky2
                {
                  OFFSET 1.82734 -0.647385 -0.700984
                  CHANNELS 3 Zrotation Xrotation Yrotation
                  End Site
                  {
                    OFFSET 1.69225 -0.51767 -0.607171
                  }
                }
              }
            }
          }
        }
      }
    }
  }
  JOINT rButtock
  {
    OFFSET -8.77824 4.35084 1.2192
    CHANNELS 3 Zrotation Xrotation Yrotation
    JOINT rThigh
    {
      OFFSET 0 -1.70687 -2.19456
      CHANNELS 3 Zrotation Xrotation Yrotation
      JOINT rShin
      {
        OFFSET 0 -36.8199 0.73152
        CHANNELS 3 Zrotation Xrotation Yrotation
        JOINT rFoot
        {
          OFFSET 0.73152 -45.1104 -5.12064
          CHANNELS 3 Zrotation Xrotation Yrotation
          End Site
          {
            OFFSET -1.1221 -3.69964 12.103
          }
        }
      }
    }
  }
  JOINT lButtock
  {
    OFFSET 8.77824 4.35084 1.2192
    CHANNELS 3 Zrotation Xrotation Yrotation
    JOINT lThigh
    {
      OFFSET 0 -1.70687 -2.19456
      CHANNELS 3 Zrotation Xrotation Yrotation
      JOINT lShin
      {
        OFFSET 0 -36.8199 0.73152
        CHANNELS 3 Zrotation Xrotation Yrotation
        JOINT lFoot
        {
          OFFSET -0.73152 -45.1104 -5.12064
          CHANNELS 3 Zrotation Xrotation Yrotation
          End Site
          {
            OFFSET 1.1221 -3.69964 12.103
          }
        }
      }
    }
  }
}
MOTION
Frames:	8
Frame Time:	0.00833333
17.8519 73.5038 16.3183 -3.09518 -9.01231 -2.38477 4.04074 8.95201 0.64919 1.30749 -3.84269 0.160887 -1.41973 -11.8812 -0.720512 -4.00446 5.4837 -0.564661 -0 0 0 -0 0 0 -5.30484e-014 7.37801e-014 -5.51367e-014 25.6669 -8.53205 53.3825 -22.5757 -16.652 45.3859 -0.51676 19.9934 2.93106 -6.14674e-010 -1.10682e-009 -5.62268e-010 -1.07498e-009 -1.88904e-009 -9.5934e-010 -6.14675e-010 -1.10681e-009 -5.62274e-010 7.73091 5.47488 0.417314 -6.14676e-010 -1.10682e-009 -5.62268e-010 2.90554 0.965183 0.102902 -6.14673e-010 -1.10682e-009 -5.62266e-010 10.2786 0.731801 0.0259123 -6.14676e-010 -1.10682e-009 -5.62256e-010 2.22167 -0.733487 -0.20892 -5.30666e-014 7.3781e-014 -5.5365e-014 -39.8145 -3.65077 -51.2781 26.1575 -23.8459 -57.4294 0.487537 19.4481 -2.84446 8.68081e-010 -1.15021e-009 4.67001e-010 1.50925e-009 -1.96837e-009 7.90957e-010 8.68077e-010 -1.1502e-009 4.66998e-010 -7.73091 5.47488 -0.417314 8.68079e-010 -1.1502e-009 4.66992e-010 -2.90554 0.965183 -0.102902 8.6807e-010 -1.1502e-009 4.66997e-010 -10.2786 0.731801 -0.0259123 8.68078e-010 -1.15021e-009 4.66994e-010 -2.22167 -0.733487 0.20892 -2.03217e-016 0 -3.88251e-019 -10.716 -18.0144 -11.8984 -1.06197 60.7086 1.74773 -2.35336 -25.0355 -4.18552 2.03217e-016 0 3.88251e-019 17.1252 -18.2319 9.43014 1.10517 61.2617 -1.69111 -2.55539 -26.9789 -4.53569 
17.8463 73.5067 16.318 -3.10317 -9.0089 -2.38366 4.04656 8.95666 0.653272 1.30886 -3.8413 0.16189 -1.42535 -11.8686 -0.718832 -3.99872 5.44969 -0.557932 -0 0 0 -0 0 0 -7.98634e-014 4.37328e-014 -6.20705e-014 25.6638 -8.54454 53.3844 -22.572 -16.6525 45.3867 -0.517008 19.9979 2.93178 -5.00813e-010 -9.76656e-010 -5.13221e-010 -8.7793e-010 -1.66819e-009 -8.76391e-010 -5.00816e-010 -9.76639e-010 -5.13224e-010 7.73091 5.47488 0.417314 -5.00816e-010 -9.76653e-010 -5.13221e-010 2.90554 0.965183 0.102902 -5.00814e-010 -9.76655e-010 -5.13219e-010 10.2786 0.731801 0.0259123 -5.00816e-010 -9.76657e-010 -5.13211e-010 2.22167 -0.733487 -0.20892 -7.98654e-014 4.37334e-014 -6.2319e-014 -39.8137 -3.64889 -51.2899 26.1574 -23.8454 -57.4285 0.488329 19.4631 -2.84684 1.09295e-009 -1.16016e-009 3.58471e-010 1.89581e-009 -1.98047e-009 6.00233e-010 1.09295e-009 -1.16015e-009 3.58468e-010 -7.73091 5.47488 -0.417314 1.09295e-009 -1.16016e-009 3.58458e-010 -2.90554 0.965183 -0.102902 1.09294e-009 -1.16015e-009 3.58465e-010 -10.2786 0.731801 -0.0259123 1.09295e-009 -1.16016e-009 3.58461e-010 -2.22167 -0.733487 0.20892 -2.03217e-016 0 -3.88251e-019 -10.7113 -18.0165 -11.9064 -1.06192 60.7052 1.74763 -2.35015 -25.0315 -4.18019 2.03217e-016 0 3.88251e-019 17.131 -18.2377 9.42529 1.10543 61.2625 -1.69211 -2.55496 -26.9791 -4.53469 
17.8442 73.507 16.3149 -3.10299 -9.00488 -2.38083 4.03882 8.95625 0.655254 1.3136 -3.84386 0.162581 -1.43195 -11.8466 -0.718308 -3.99207 5.41408 -0.552453 -0 0 0 -0 0 0 -8.16561e-014 4.9064e-014 -7.09972e-014 25.6648 -8.55019 53.3847 -22.5717 -16.6519 45.3854 -0.516633 19.9911 2.93069 -3.07542e-010 -9.53142e-010 -5.70399e-010 -5.44417e-010 -1.63292e-009 -9.78066e-010 -3.07544e-010 -9.53127e-010 -5.70402e-010 7.73091 5.47488 0.417314 -3.07545e-010 -9.53137e-010 -5.70399e-010 2.90554 0.965183 0.102902 -3.07542e-010 -9.53141e-010 -5.70399e-010 10.2786 0.731801 0.0259123 -3.07547e-010 -9.53143e-010 -5.70394e-010 2.22167 -0.733487 -0.20892 -8.16633e-014 4.90619e-014 -7.12503e-014 -39.818 -3.64221 -51.2997 26.1569 -23.8442 -57.4267 0.48797 19.4563 -2.84576 1.08452e-009 -1.31066e-009 4.65704e-010 1.88206e-009 -2.24166e-009 7.85817e-010 1.08452e-009 -1.31065e-009 4.65702e-010 -7.73091 5.47488 -0.417314 1.08452e-009 -1.31065e-009 4.65691e-010 -2.90554 0.965183 -0.102902 1.08451e-009 -1.31065e-009 4.65698e-010 -10.2786 0.731801 -0.0259123 1.08452e-009 -1.31066e-009 4.65692e-010 -2.22167 -0.733487 0.20892 -2.03217e-016 0 -3.88251e-019 -10.7184 -18.0201 -11.915 -1.06233 60.7024 1.74792 -2.34495 -25.0275 -4.17061 2.03217e-016 0 3.88251e-019 17.1255 -18.2436 9.42093 1.10577 61.2599 -1.69207 -2.55461 -26.9767 -4.53519 
17.8554 73.5064 16.3112 -3.09753 -9.00062 -2.37662 4.0224 8.95224 0.656011 1.32078 -3.84847 0.163069 -1.44008 -11.8183 -0.718865 -3.98306 5.37722 -0.547967 -0 0 0 -0 0 0 -6.70802e-014 6.61987e-014 -8.00543e-014 25.6684 -8.5516 53.3839 -22.5732 -16.6506 45.3826 -0.515834 19.9764 2.92835 -3.33505e-011 -9.19165e-010 -6.52229e-010 -7.0826e-011 -1.58178e-009 -1.1237e-009 -3.33521e-011 -9.19156e-010 -6.52233e-010 7.73091 5.47488 0.417314 -3.33531e-011 -9.19158e-010 -6.52229e-010 2.90554 0.965183 0.102902 -3.33489e-011 -9.19164e-010 -6.52233e-010 10.2786 0.731801 0.0259123 -3.33567e-011 -9.19164e-010 -6.5223e-010 2.22167 -0.733487 -0.20892 -6.71038e-014 6.61924e-014 -8.03028e-014 -39.8263 -3.63203 -51.3087 26.1562 -23.8424 -57.424 0.486925 19.4365 -2.84262 9.34258e-010 -1.49023e-009 6.63127e-010 1.62425e-009 -2.55683e-009 1.12953e-009 9.34255e-010 -1.49021e-009 6.63128e-010 -7.73091 5.47488 -0.417314 9.34256e-010 -1.49022e-009 6.63117e-010 -2.90554 0.965183 -0.102902 9.34248e-010 -1.49022e-009 6.63122e-010 -10.2786 0.731801 -0.0259123 9.34259e-010 -1.49023e-009 6.63112e-010 -2.22167 -0.733487 0.20892 -2.03217e-016 0 -3.88251e-019 -10.7333 -18.0243 -11.924 -1.06309 60.7003 1.74853 -2.33861 -25.0236 -4.15857 2.03217e-016 0 3.88251e-019 17.1125 -18.2493 9.41686 1.10625 61.255 -1.69145 -2.55453 -26.973 -4.53698 
17.8535 73.5088 16.311 -3.09032 -8.9963 -2.37197 4.00531 8.94729 0.655761 1.32802 -3.85406 0.163397 -1.44742 -11.7889 -0.719655 -3.97507 5.34195 -0.54479 -0 0 0 -0 0 0 -5.29122e-014 8.64144e-014 -8.72012e-014 25.6725 -8.55028 53.383 -22.5748 -16.6485 45.3785 -0.515021 19.9615 2.92597 2.5429e-010 -8.59128e-010 -7.21633e-010 4.26303e-010 -1.4861e-009 -1.24814e-009 2.5429e-010 -8.59125e-010 -7.21638e-010 7.73091 5.47488 0.417314 2.54288e-010 -8.59118e-010 -7.21632e-010 2.90554 0.965183 0.102902 2.54294e-010 -8.59127e-010 -7.21639e-010 10.2786 0.731801 0.0259123 2.54282e-010 -8.59125e-010 -7.21639e-010 2.22167 -0.733487 -0.20892 -5.29565e-014 8.64042e-014 -8.74451e-014 -39.8359 -3.61963 -51.3164 26.1555 -23.8405 -57.421 0.485774 19.4146 -2.83916 7.49442e-010 -1.616e-009 8.39978e-010 1.30642e-009 -2.77962e-009 1.43825e-009 7.49441e-010 -1.61598e-009 8.39982e-010 -7.73091 5.47488 -0.417314 7.49443e-010 -1.61599e-009 8.39972e-010 -2.90554 0.965183 -0.102902 7.49435e-010 -1.61599e-009 8.39975e-010 -10.2786 0.731801 -0.0259123 7.49447e-010 -1.616e-009 8.39962e-010 -2.22167 -0.733487 0.20892 -2.03217e-016 0 -3.88251e-019 -10.7487 -18.0285 -11.9316 -1.06383 60.6978 1.74911 -2.33332 -25.0196 -4.14845 2.03217e-016 0 3.88251e-019 17.0985 -18.2542 9.41375 1.10676 61.249 -1.69069 -2.5543 -26.9689 -4.53855 
17.8533 73.5107 16.3111 -3.08492 -8.99207 -2.36781 3.99555 8.94404 0.654724 1.33294 -3.85957 0.163607 -1.45166 -11.7632 -0.719833 -3.9715 5.3111 -0.543236 -0 0 0 -0 0 0 -5.59285e-014 1.00989e-013 -9.03973e-014 25.6748 -8.54774 53.3829 -22.5749 -16.6455 45.373 -0.514602 19.9537 2.92474 4.8791e-010 -7.57434e-010 -7.4153e-010 8.30432e-010 -1.31724e-009 -1.28624e-009 4.87911e-010 -7.57433e-010 -7.41537e-010 7.73091 5.47488 0.417314 4.87907e-010 -7.57423e-010 -7.4153e-010 2.90554 0.965183 0.102902 4.87915e-010 -7.57433e-010 -7.41538e-010 10.2786 0.731801 0.0259123 4.87901e-010 -7.5743e-010 -7.4154e-010 2.22167 -0.733487 -0.20892 -5.59908e-014 1.00976e-013 -9.06458e-014 -39.8444 -3.60628 -51.3217 26.1553 -23.8396 -57.4186 0.485091 19.4016 -2.8371 6.37358e-010 -1.6051e-009 8.85495e-010 1.11259e-009 -2.76369e-009 1.51883e-009 6.37357e-010 -1.60508e-009 8.85501e-010 -7.73091 5.47488 -0.417314 6.37359e-010 -1.60509e-009 8.85492e-010 -2.90554 0.965183 -0.102902 6.37353e-010 -1.6051e-009 8.85494e-010 -10.2786 0.731801 -0.0259123 6.37365e-010 -1.6051e-009 8.85479e-010 -2.22167 -0.733487 0.20892 -2.03217e-016 0 -3.88251e-019 -10.7576 -18.0318 -11.9358 -1.06418 60.6941 1.74933 -2.33129 -25.0155 -4.14464 2.03217e-016 0 3.88251e-019 17.0895 -18.2578 9.41231 1.10716 61.2428 -1.69027 -2.55347 -26.9654 -4.53839 
17.8559 73.5119 16.3103 -3.08203 -8.98776 -2.36428 3.99655 8.94339 0.652612 1.33434 -3.86479 0.163669 -1.4489 -11.7439 -0.718659 -3.97703 5.28808 -0.544166 -0 0 0 -0 0 0 -9.12544e-014 1.13984e-013 -9.05289e-014 25.6762 -8.5452 53.3843 -22.5728 -16.6413 45.3653 -0.514799 19.9574 2.92532 6.67825e-010 -6.00074e-010 -7.06353e-010 1.14193e-009 -1.05101e-009 -1.22829e-009 6.67827e-010 -6.00069e-010 -7.0636e-010 7.73091 5.47488 0.417314 6.67823e-010 -6.00066e-010 -7.06355e-010 2.90554 0.965183 0.102902 6.6783e-010 -6.00074e-010 -7.06362e-010 10.2786 0.731801 0.0259123 6.67815e-010 -6.0007e-010 -7.06364e-010 2.22167 -0.733487 -0.20892 -9.13337e-014 1.13972e-013 -9.08023e-014 -39.8507 -3.59223 -51.3247 26.1556 -23.8396 -57.4169 0.485015 19.4001 -2.83687 6.46933e-010 -1.40583e-009 7.43976e-010 1.12655e-009 -2.41807e-009 1.27419e-009 6.46932e-010 -1.40582e-009 7.43983e-010 -7.73091 5.47488 -0.417314 6.46935e-010 -1.40583e-009 7.43975e-010 -2.90554 0.965183 -0.102902 6.46929e-010 -1.40584e-009 7.43977e-010 -10.2786 0.731801 -0.0259123 6.46941e-010 -1.40583e-009 7.43964e-010 -2.22167 -0.733487 0.20892 -2.03217e-016 0 -3.88251e-019 -10.7571 -18.0349 -11.9356 -1.06403 60.6887 1.74913 -2.3344 -25.0106 -4.15071 2.03217e-016 0 3.88251e-019 17.0882 -18.2598 9.4137 1.1075 61.2366 -1.69044 -2.55138 -26.9629 -4.53489 
17.8581 73.5117 16.3073 -3.07985 -8.98335 -2.36092 4.00362 8.94385 0.649425 1.33369 -3.87027 0.163574 -1.44147 -11.7278 -0.716755 -3.98862 5.27049 -0.547151 -0 0 0 -0 0 0 -1.46392e-013 1.27923e-013 -8.82076e-014 25.6774 -8.54159 53.3867 -22.5693 -16.6358 45.3557 -0.515357 19.9676 2.92696 8.23917e-010 -3.98651e-010 -6.34437e-010 1.41246e-009 -7.08201e-010 -1.1065e-009 8.2392e-010 -3.98638e-010 -6.34443e-010 7.73091 5.47488 0.417314 8.23915e-010 -3.98647e-010 -6.34442e-010 2.90554 0.965183 0.102902 8.23922e-010 -3.98651e-010 -6.34446e-010 10.2786 0.731801 0.0259123 8.23907e-010 -3.98646e-010 -6.34447e-010 2.22167 -0.733487 -0.20892 -1.4649e-013 1.27913e-013 -8.85182e-014 -39.8562 -3.57682 -51.3258 26.1564 -23.8404 -57.4154 0.485244 19.4045 -2.83756 7.14178e-010 -1.07226e-009 4.83216e-010 1.23858e-009 -1.83811e-009 8.22512e-010 7.14174e-010 -1.07224e-009 4.83223e-010 -7.73091 5.47488 -0.417314 7.1418e-010 -1.07225e-009 4.83216e-010 -2.90554 0.965183 -0.102902 7.14174e-010 -1.07226e-009 4.83219e-010 -10.2786 0.731801 -0.0259123 7.14186e-010 -1.07226e-009 4.8321e-010 -2.22167 -0.733487 0.20892 -2.03217e-016 0 -3.88251e-019 -10.7513 -18.0378 -11.9322 -1.06359 60.6823 1.74867 -2.34103 -25.0053 -4.16353 2.03217e-016 0 3.88251e-019 17.0911 -18.2606 9.41721 1.10782 61.2298 -1.69091 -2.54845 -26.9609 -4.52926 
